#!OML:ASF E:\pregnant2\Project 1\Capture day 1\Session 1\pregnant2.ASF
:FULLY-SPECIFIED
:DEGREES
995
root -15.3346 17.0821 39.4577 -510.651 -3.07343 536.627
lowerback -17.8579 1.70432 -4.32882
upperback -14.6043 -0.612618 -2.32475
thorax -5.92148 -1.5362 0.0169475
lowerneck -10.1586 -8.01222 -13.8255
upperneck 36.1699 -17.3856 7.83426
head 16.6943 -9.93091 2.17121
rclavicle -1.66482e-014 -1.31198e-014
rhumerus -55.187 3.05879 -79.7688
rradius 28.0654
rwrist 11.992
rhand -12.6678 -17.7038
rfingers 7.12502
rthumb 193.413 132.748
lclavicle -1.66482e-014 -1.31198e-014
lhumerus -36.529 -6.67294 80.7417
lradius 29.977
lwrist -1.62538
lhand -12.7017 31.4375
lfingers 7.12502
lthumb 193.381 -119.012
rfemur -47.7435 2.07499 18.9185
rtibia 66.482
rfoot -1.36835 3.08438
rtoes -9.332
lfemur -45.183 -12.7071 -17.9071
ltibia 29.1602
lfoot -10.0874 15.191
ltoes -14.0963
996
root -15.3648 17.0838 39.3862 -510.632 -2.49211 536.702
lowerback -17.8665 1.71179 -4.25106
upperback -14.5996 -0.629496 -2.29186
thorax -5.90874 -1.55784 0.0072354
lowerneck -10.1569 -8.03594 -13.828
upperneck 36.0948 -17.3614 7.71407
head 16.6334 -9.93404 2.12652
rclavicle 3.37934e-015 -2.46493e-014
rhumerus -55.3055 3.26601 -79.8878
rradius 28.4704
rwrist 11.4047
rhand -12.8011 -17.6932
rfingers 7.12502
rthumb 193.285 132.75
lclavicle 3.37934e-015 -2.46493e-014
lhumerus -36.5068 -6.99381 80.8456
lradius 30.2851
lwrist -1.43522
lhand -12.7041 31.4375
lfingers 7.12502
lthumb 193.378 -119.012
rfemur -48.6822 2.12717 18.9915
rtibia 66.8642
rfoot -1.85811 3.08182
rtoes -9.63137
lfemur -44.8987 -12.536 -18.1101
ltibia 29.2597
lfoot -10.361 15.6218
ltoes -13.9414
997
root -15.3939 17.0846 39.3149 -510.622 -1.90473 536.774
lowerback -17.863 1.71952 -4.17417
upperback -14.5867 -0.642448 -2.25822
thorax -5.89286 -1.57582 -0.000824235
lowerneck -10.1863 -8.06772 -13.8442
upperneck 36.0234 -17.3469 7.60946
head 16.5877 -9.93862 2.08659
rclavicle 7.20594e-015 -1.11319e-014
rhumerus -55.3713 3.41638 -79.9858
rradius 28.8359
rwrist 10.8419
rhand -12.9615 -17.7035
rfingers 7.12502
rthumb 193.13 132.73
lclavicle 7.20594e-015 -1.11319e-014
lhumerus -36.4762 -7.27931 80.9426
lradius 30.581
lwrist -1.25375
lhand -12.6772 31.4975
lfingers 7.12502
lthumb 193.404 -118.954
rfemur -49.5892 2.20986 19.0474
rtibia 67.1103
rfoot -2.3456 3.1644
rtoes -9.98561
lfemur -44.6111 -12.3205 -18.3459
ltibia 29.3766
lfoot -10.6528 16.0145
ltoes -13.8129
998
root -15.4219 17.0847 39.2433 -510.616 -1.31221 536.842
lowerback -17.8557 1.72783 -4.10636
upperback -14.5687 -0.65143 -2.22361
thorax -5.87355 -1.59016 -0.00242472
lowerneck -10.2226 -8.10374 -13.8611
upperneck 35.9411 -17.3335 7.51145
head 16.5393 -9.94113 2.0495
rclavicle 1.28216e-014 -7.55382e-015
rhumerus -55.3954 3.51173 -80.0666
rradius 29.1612
rwrist 10.3138
rhand -13.138 -17.7429
rfingers 7.12502
rthumb 192.96 132.68
lclavicle 1.28216e-014 -7.55382e-015
lhumerus -36.4196 -7.51259 81.0268
lradius 30.8197
lwrist -1.09658
lhand -12.6331 31.589
lfingers 7.12502
lthumb 193.447 -118.865
rfemur -50.4643 2.32586 19.0881
rtibia 67.224
rfoot -2.85109 3.24873
rtoes -10.3646
lfemur -44.3203 -12.0591 -18.6126
ltibia 29.5067
lfoot -10.9648 16.3684
ltoes -13.6977
999
root -15.4485 17.0839 39.1715 -510.619 -0.721914 536.906
lowerback -17.837 1.73285 -4.05019
upperback -14.5499 -0.662458 -2.18409
thorax -5.85929 -1.60358 0.007599
lowerneck -10.2548 -8.13607 -13.8859
upperneck 35.8514 -17.316 7.42731
head 16.4887 -9.94132 2.02102
rclavicle -9.49197e-015 1.88845e-014
rhumerus -55.3959 3.56323 -80.1324
rradius 29.4547
rwrist 9.83325
rhand -13.3208 -17.8051
rfingers 7.12502
rthumb 192.784 132.606
lclavicle -9.49197e-015 1.88845e-014
lhumerus -36.3812 -7.72988 81.1194
lradius 31.0446
lwrist -0.9382
lhand -12.6106 31.6415
lfingers 7.12502
lthumb 193.468 -118.814
rfemur -51.2996 2.46822 19.118
rtibia 67.2093
rfoot -3.38821 3.27262
rtoes -10.7444
lfemur -44.0255 -11.774 -18.8968
ltibia 29.651
lfoot -11.2892 16.7025
ltoes -13.603
1000
root -15.474 17.0819 39.0997 -510.631 -0.136344 536.964
lowerback -17.8054 1.73734 -4.00301
upperback -14.5319 -0.672978 -2.14507
thorax -5.85293 -1.61551 0.0224144
lowerneck -10.2877 -8.16905 -13.9079
upperneck 35.7649 -17.3035 7.34619
head 16.4409 -9.94326 1.99224
rclavicle 1.0138e-014 -4.85035e-014
rhumerus -55.3808 3.56594 -80.1905
rradius 29.7207
rwrist 9.4124
rhand -13.4998 -17.8864
rfingers 7.12502
rthumb 192.611 132.514
lclavicle 1.0138e-014 -4.85035e-014
lhumerus -36.3619 -7.9597 81.2276
lradius 31.2576
lwrist -0.768028
lhand -12.6316 31.6678
lfingers 7.12502
lthumb 193.448 -118.786
rfemur -52.0955 2.62951 19.1365
rtibia 67.0721
rfoot -3.96067 3.19525
rtoes -11.108
lfemur -43.731 -11.4788 -19.1926
ltibia 29.813
lfoot -11.6261 17.0284
ltoes -13.5131
1001
root -15.4982 17.0782 39.0276 -510.648 0.441853 537.024
lowerback -17.7688 1.74161 -3.95757
upperback -14.5142 -0.683056 -2.10308
thorax -5.84937 -1.62653 0.0414942
lowerneck -10.2943 -8.20189 -13.9314
upperneck 35.6611 -17.2941 7.27315
head 16.3799 -9.94675 1.96878
rclavicle -8.59744e-015 2.20651e-014
rhumerus -55.3561 3.54386 -80.2538
rradius 29.9798
rwrist 9.02285
rhand -13.6558 -17.9895
rfingers 7.12502
rthumb 192.461 132.402
lclavicle -8.59744e-015 2.20651e-014
lhumerus -36.3615 -8.19474 81.354
lradius 31.4637
lwrist -0.582187
lhand -12.7086 31.637
lfingers 7.12502
lthumb 193.374 -118.812
rfemur -52.8563 2.80935 19.1499
rtibia 66.8171
rfoot -4.55405 2.98575
rtoes -11.3897
lfemur -43.4441 -11.1889 -19.4817
ltibia 29.9967
lfoot -11.9743 17.3624
ltoes -13.4281
